<svg width="16" height="16" viewBox="0 0 16 16" fill="none" xmlns="http://www.w3.org/2000/svg">
<path d="M11.9867 7.19334V9.86001C11.9867 10.0333 11.98 10.2 11.96 10.36C11.8067 12.16 10.7467 13.0533 8.79334 13.0533H8.52667C8.36001 13.0533 8.2 13.1333 8.1 13.2667L7.30001 14.3333C6.94668 14.8067 6.37333 14.8067 6.02 14.3333L5.21999 13.2667C5.13333 13.1533 4.94 13.0533 4.79334 13.0533H4.52667C2.40001 13.0533 1.33334 12.5267 1.33334 9.86001V7.19334C1.33334 5.24001 2.23334 4.18001 4.02667 4.02667C4.18667 4.00667 4.35334 4 4.52667 4H8.79334C10.92 4 11.9867 5.06667 11.9867 7.19334Z" stroke="white" stroke-width="1.5" stroke-miterlimit="10" stroke-linecap="round" stroke-linejoin="round"/>
<path d="M14.6533 4.52667V7.19333C14.6533 9.15333 13.7533 10.2067 11.96 10.36C11.98 10.2 11.9867 10.0333 11.9867 9.86V7.19333C11.9867 5.06667 10.92 3.99999 8.79333 3.99999H4.52667C4.35334 3.99999 4.18667 4.00667 4.02667 4.02667C4.18001 2.23333 5.24001 1.33333 7.19334 1.33333H11.46C13.5867 1.33333 14.6533 2.4 14.6533 4.52667Z" stroke="white" stroke-width="1.5" stroke-miterlimit="10" stroke-linecap="round" stroke-linejoin="round"/>
<path d="M8.997 8.83333H9.003" stroke="white" stroke-width="2" stroke-linecap="round" stroke-linejoin="round"/>
<path d="M6.66367 8.83333H6.66967" stroke="white" stroke-width="2" stroke-linecap="round" stroke-linejoin="round"/>
<path d="M4.33033 8.83333H4.33633" stroke="white" stroke-width="2" stroke-linecap="round" stroke-linejoin="round"/>
</svg>
