<svg width="16" height="16" viewBox="0 0 16 16" fill="none" xmlns="http://www.w3.org/2000/svg">
<path d="M14.4467 9.53333L14.18 12.8667C14.08 13.8867 14 14.6667 12.1933 14.6667H3.80667C2 14.6667 1.92 13.8867 1.82 12.8667L1.55334 9.53333C1.5 8.98 1.67334 8.46666 1.98667 8.07333C1.99334 8.06666 1.99334 8.06666 2 8.06C2.36667 7.61333 2.92 7.33333 3.54 7.33333H12.46C13.08 7.33333 13.6267 7.61333 13.9867 8.04666C13.9933 8.05333 14 8.06 14 8.06666C14.3267 8.46 14.5067 8.97333 14.4467 9.53333Z" stroke="white" stroke-width="1.5" stroke-miterlimit="10"/>
<path d="M2.33334 7.62V4.18667C2.33334 1.92 2.9 1.35333 5.16667 1.35333H6.01334C6.86 1.35333 7.05334 1.60667 7.37334 2.03333L8.22 3.16667C8.43334 3.44667 8.56 3.62 9.12667 3.62H10.8267C13.0933 3.62 13.66 4.18667 13.66 6.45333V7.64667" stroke="white" stroke-width="1.5" stroke-miterlimit="10" stroke-linecap="round" stroke-linejoin="round"/>
<path d="M6.28667 11.3333H9.71333" stroke="white" stroke-width="1.5" stroke-miterlimit="10" stroke-linecap="round" stroke-linejoin="round"/>
</svg>
